<?xml version="1.0" standalone="no"?>
<!DOCTYPE svg PUBLIC "-//W3C//DTD SVG 20010904//EN"
 "http://www.w3.org/TR/2001/REC-SVG-20010904/DTD/svg10.dtd">
<svg version="1.0" xmlns="http://www.w3.org/2000/svg"
 width="500.000000pt" height="500.000000pt" viewBox="0 0 500.000000 500.000000"
 preserveAspectRatio="xMidYMid meet">

<g transform="translate(0.000000,500.000000) scale(0.100000,-0.100000)"
fill="#000000" stroke="none">
<path d="M2435 4164 c-22 -13 -120 -70 -217 -126 -97 -56 -174 -106 -171 -111
3 -6 1 -7 -6 -3 -6 4 -45 -13 -86 -38 -42 -25 -80 -46 -85 -46 -6 0 -10 -4
-10 -10 0 -5 -4 -10 -9 -10 -5 0 -96 -50 -203 -112 -106 -61 -267 -154 -358
-206 -91 -52 -182 -105 -202 -119 l-38 -26 0 -366 c0 -201 4 -371 8 -377 5 -9
256 -161 377 -228 11 -6 119 -70 240 -142 205 -122 617 -366 782 -463 l72 -43
56 30 c167 91 514 298 512 306 -3 8 -87 60 -297 181 -89 52 -234 136 -410 240
-477 280 -631 367 -645 361 -11 -4 -15 -29 -17 -110 l-3 -104 -160 93 c-88 51
-166 99 -173 105 -9 8 -12 49 -10 158 l3 146 255 149 c212 125 453 264 595
347 159 92 214 128 208 135 -5 4 -3 5 4 1 6 -3 22 -1 36 5 25 12 17 16 472
-253 62 -37 128 -75 146 -85 19 -10 71 -41 117 -67 l82 -49 0 -91 c0 -82 3
-96 30 -143 35 -62 30 -57 305 -222 133 -79 230 -131 246 -131 57 0 59 9 59
328 l0 292 -52 34 c-59 37 -368 216 -374 216 -2 0 -24 13 -50 30 -26 16 -52
27 -58 23 -6 -3 -8 -3 -4 2 4 4 -21 24 -55 45 -173 103 -278 160 -287 155 -6
-4 -9 -2 -8 4 2 6 -7 17 -19 24 -12 6 -51 29 -86 50 -36 20 -70 37 -76 37 -6
0 -11 4 -11 9 0 5 -15 15 -32 22 -18 7 -55 28 -83 46 -27 18 -56 31 -62 28 -7
-2 -12 0 -10 6 3 13 -152 98 -178 98 -11 0 -38 -11 -60 -25z m1201 -829 c127
-77 128 -79 133 -186 6 -158 -30 -174 -188 -84 -120 68 -131 84 -131 197 0
148 37 163 186 73z"/>
<path d="M2430 3325 c-30 -18 -122 -72 -204 -120 -123 -72 -146 -89 -135 -100
14 -13 83 -54 924 -547 253 -149 493 -290 533 -315 l72 -44 0 -143 0 -142 -77
-44 c-65 -36 -522 -305 -880 -517 l-92 -54 -303 177 c-167 98 -360 211 -430
252 l-128 74 0 43 c0 59 -27 137 -62 179 -29 35 -61 56 -308 203 -211 126
-231 132 -270 93 -19 -19 -20 -33 -20 -319 l0 -300 32 -24 c18 -13 123 -77
233 -142 110 -65 315 -186 455 -270 544 -324 724 -427 744 -427 12 0 138 71
281 157 143 87 433 262 645 390 511 307 490 294 500 321 5 12 6 201 3 423 l-6
401 -156 91 c-311 183 -389 228 -546 319 -88 51 -212 123 -275 160 -388 225
-450 260 -462 259 -7 0 -38 -16 -68 -34z m-994 -1322 c113 -68 124 -85 124
-198 0 -98 -18 -134 -65 -135 -26 0 -203 104 -232 136 -21 23 -23 35 -23 125
0 87 2 101 21 120 29 29 59 21 175 -48z"/>
</g>
</svg>
